<svg width="60" height="60" viewBox="0 0 60 60" fill="none" xmlns="http://www.w3.org/2000/svg">
<circle cx="30" cy="30" r="30" fill="#191E1C"/>
<g clip-path="url(#clip0)">
<path d="M34 39.9999V36.1299C34.0375 35.6531 33.9731 35.1737 33.811 34.7237C33.6489 34.2737 33.3929 33.8634 33.06 33.5199C36.2 33.1699 39.5 31.9799 39.5 26.5199C39.4997 25.1238 38.9627 23.7811 38 22.7699C38.4559 21.5484 38.4236 20.1983 37.91 18.9999C37.91 18.9999 36.73 18.6499 34 20.4799C31.708 19.8588 29.292 19.8588 27 20.4799C24.27 18.6499 23.09 18.9999 23.09 18.9999C22.5764 20.1983 22.5441 21.5484 23 22.7699C22.0301 23.7886 21.4925 25.1434 21.5 26.5499C21.5 31.9699 24.8 33.1599 27.94 33.5499C27.611 33.8899 27.3573 34.2953 27.1953 34.7399C27.0334 35.1844 26.9668 35.658 27 36.1299V39.9999M27 36.9999C22 38.4999 22 34.4999 20 33.9999L27 36.9999Z" stroke="#F7F7F7" stroke-width="2" stroke-linecap="round" stroke-linejoin="round"/>
</g>
<defs>
<clipPath id="clip0">
<rect width="24" height="24" fill="white" transform="translate(18 18)"/>
</clipPath>
</defs>
</svg>
