<svg width="60" height="60" viewBox="0 0 60 60" fill="none" xmlns="http://www.w3.org/2000/svg">
<circle cx="30" cy="30" r="30" fill="#191E1C"/>
<path d="M34 26C35.5913 26 37.1174 26.6321 38.2426 27.7574C39.3679 28.8826 40 30.4087 40 32V39H36V32C36 31.4696 35.7893 30.9609 35.4142 30.5858C35.0391 30.2107 34.5304 30 34 30C33.4696 30 32.9609 30.2107 32.5858 30.5858C32.2107 30.9609 32 31.4696 32 32V39H28V32C28 30.4087 28.6321 28.8826 29.7574 27.7574C30.8826 26.6321 32.4087 26 34 26V26Z" stroke="#F7F7F7" stroke-width="2" stroke-linecap="round" stroke-linejoin="round"/>
<path d="M24 27H20V39H24V27Z" stroke="#F7F7F7" stroke-width="2" stroke-linecap="round" stroke-linejoin="round"/>
<path d="M22 24C23.1046 24 24 23.1046 24 22C24 20.8954 23.1046 20 22 20C20.8954 20 20 20.8954 20 22C20 23.1046 20.8954 24 22 24Z" stroke="#F7F7F7" stroke-width="2" stroke-linecap="round" stroke-linejoin="round"/>
</svg>
