<svg width="60" height="60" viewBox="0 0 60 60" fill="none" xmlns="http://www.w3.org/2000/svg">
<circle cx="30" cy="30" r="30" fill="#F7F7F7"/>
<path d="M27.6001 31.2003C28.1154 31.8893 28.7729 32.4594 29.528 32.8719C30.283 33.2844 31.1179 33.5297 31.9761 33.5911C32.8342 33.6526 33.6956 33.5288 34.5017 33.2281C35.3078 32.9274 36.0398 32.4568 36.6481 31.8483L40.2481 28.2483C41.341 27.1167 41.9458 25.6011 41.9321 24.0279C41.9185 22.4548 41.2875 20.9499 40.175 19.8374C39.0626 18.725 37.5577 18.094 35.9845 18.0803C34.4113 18.0666 32.8957 18.6714 31.7641 19.7643L29.7001 21.8163" stroke="#191A1E" stroke-width="3" stroke-linecap="round" stroke-linejoin="round"/>
<path d="M32.4001 28.7997C31.8848 28.1107 31.2273 27.5407 30.4723 27.1282C29.7172 26.7156 28.8823 26.4703 28.0242 26.4089C27.166 26.3474 26.3046 26.4712 25.4985 26.7719C24.6924 27.0726 23.9604 27.5432 23.3521 28.1517L19.7521 31.7517C18.6592 32.8833 18.0544 34.3989 18.0681 35.9721C18.0818 37.5453 18.7128 39.0501 19.8252 40.1626C20.9377 41.275 22.4426 41.9061 24.0157 41.9197C25.5889 41.9334 27.1045 41.3286 28.2361 40.2357L30.2881 38.1837" stroke="#191A1E" stroke-width="3" stroke-linecap="round" stroke-linejoin="round"/>
</svg>
