<svg width="50" height="28" viewBox="0 0 50 28" fill="none" xmlns="http://www.w3.org/2000/svg">
<path d="M6.62919 12.1729V5.34987H10.2345C12.8707 5.34987 13.995 6.66796 13.995 8.76139C13.995 10.8548 12.8707 12.1729 10.2345 12.1729H6.62919ZM20.7405 8.76139C20.7405 3.76042 17.4065 0 10.7385 0H0V27.2146H6.62919V17.4452H10.7385C17.6778 17.4452 20.7405 13.2584 20.7405 8.76139Z" fill="#191E1C"/>
<path d="M36.858 0C28.7168 0 23.0181 5.73755 23.0181 13.8787C23.0181 22.0198 28.7556 27.7185 36.8967 27.7185C44.0687 27.7185 48.6044 23.0277 50 18.3369V12.1729H35.5786V17.0576H43.9911C42.9832 20.1202 40.6959 21.8647 37.4007 21.8647C32.6323 21.8647 29.7636 18.9184 29.7636 13.8787C29.7636 9.14906 32.5936 6.12522 36.858 6.12522C39.3391 6.12522 41.1999 7.0944 42.2078 8.91646H49.5348C48.1004 3.33398 43.3708 0 36.858 0Z" fill="#191E1C"/>
</svg>
