<svg width="37" height="28" viewBox="0 0 37 28" fill="none" xmlns="http://www.w3.org/2000/svg">
<path d="M13.5934 0C5.5973 0 0 5.77159 0 13.961C0 22.1504 5.63538 27.883 13.6315 27.883C20.6757 27.883 25.1307 23.1643 26.5015 18.4457V12.2451H12.3369V17.1588H20.5996C19.6096 20.2396 17.3631 21.9944 14.1265 21.9944C9.44306 21.9944 6.62537 19.0306 6.62537 13.961C6.62537 9.20334 9.40498 6.16156 13.5934 6.16156C16.0304 6.16156 17.8581 7.13649 18.848 8.96936H26.0446C24.6357 3.35376 19.9904 0 13.5934 0Z" fill="black"/>
<path d="M37 24.4123C37 22.3454 35.4388 20.7465 33.1542 20.7465C30.8315 20.7465 29.2704 22.3454 29.2704 24.4123C29.2704 26.4011 30.8315 28 33.1542 28C35.4388 28 37 26.4011 37 24.4123Z" fill="black"/>
</svg>
